<mxfile host="app.diagrams.net" modified="2023-07-23T06:23:15.475Z" agent="Mozilla/5.0 (Windows NT 10.0; Win64; x64) AppleWebKit/537.36 (KHTML, like Gecko) Chrome/114.0.0.0 Safari/537.36" etag="R18dpoj3UFnv-FBEY4yZ" version="21.6.2" type="device">
  <diagram name="Page-1" id="bR8soMfomvPNrGkE5RSd">
    <mxGraphModel dx="2117" dy="541" grid="1" gridSize="10" guides="1" tooltips="1" connect="1" arrows="1" fold="1" page="1" pageScale="1" pageWidth="827" pageHeight="1169" math="0" shadow="0">
      <root>
        <mxCell id="0" />
        <mxCell id="1" parent="0" />
        <mxCell id="yEjFLrhrBWh2FLQ-gsuq-32" value="" style="rhombus;whiteSpace=wrap;html=1;" vertex="1" parent="1">
          <mxGeometry x="230" y="220" width="100" height="100" as="geometry" />
        </mxCell>
        <mxCell id="yEjFLrhrBWh2FLQ-gsuq-1" value="Article" style="rounded=0;whiteSpace=wrap;html=1;" vertex="1" parent="1">
          <mxGeometry x="50" y="230" width="120" height="80" as="geometry" />
        </mxCell>
        <mxCell id="yEjFLrhrBWh2FLQ-gsuq-3" value="Contains" style="rhombus;whiteSpace=wrap;html=1;" vertex="1" parent="1">
          <mxGeometry x="240" y="230" width="80" height="80" as="geometry" />
        </mxCell>
        <mxCell id="yEjFLrhrBWh2FLQ-gsuq-4" value="&lt;u&gt;URL&lt;/u&gt;" style="ellipse;whiteSpace=wrap;html=1;" vertex="1" parent="1">
          <mxGeometry x="-150" y="160" width="120" height="30" as="geometry" />
        </mxCell>
        <mxCell id="yEjFLrhrBWh2FLQ-gsuq-6" value="" style="endArrow=none;html=1;rounded=0;entryX=0;entryY=0.5;entryDx=0;entryDy=0;exitX=1;exitY=0.5;exitDx=0;exitDy=0;" edge="1" parent="1" source="yEjFLrhrBWh2FLQ-gsuq-32">
          <mxGeometry width="50" height="50" relative="1" as="geometry">
            <mxPoint x="320" y="270" as="sourcePoint" />
            <mxPoint x="400" y="270" as="targetPoint" />
          </mxGeometry>
        </mxCell>
        <mxCell id="yEjFLrhrBWh2FLQ-gsuq-13" value="N" style="edgeLabel;html=1;align=center;verticalAlign=middle;resizable=0;points=[];" vertex="1" connectable="0" parent="yEjFLrhrBWh2FLQ-gsuq-6">
          <mxGeometry x="-0.0505" y="1" relative="1" as="geometry">
            <mxPoint as="offset" />
          </mxGeometry>
        </mxCell>
        <mxCell id="yEjFLrhrBWh2FLQ-gsuq-9" value="" style="endArrow=none;html=1;rounded=0;entryX=0;entryY=0.5;entryDx=0;entryDy=0;" edge="1" parent="1" target="yEjFLrhrBWh2FLQ-gsuq-32">
          <mxGeometry width="50" height="50" relative="1" as="geometry">
            <mxPoint x="170" y="270" as="sourcePoint" />
            <mxPoint x="220" y="220" as="targetPoint" />
          </mxGeometry>
        </mxCell>
        <mxCell id="yEjFLrhrBWh2FLQ-gsuq-12" value="1" style="edgeLabel;html=1;align=center;verticalAlign=middle;resizable=0;points=[];" vertex="1" connectable="0" parent="yEjFLrhrBWh2FLQ-gsuq-9">
          <mxGeometry x="0.0653" y="-2" relative="1" as="geometry">
            <mxPoint y="-2" as="offset" />
          </mxGeometry>
        </mxCell>
        <mxCell id="yEjFLrhrBWh2FLQ-gsuq-14" value="Name" style="ellipse;whiteSpace=wrap;html=1;" vertex="1" parent="1">
          <mxGeometry x="-150" y="210" width="120" height="30" as="geometry" />
        </mxCell>
        <mxCell id="yEjFLrhrBWh2FLQ-gsuq-15" value="Author" style="ellipse;whiteSpace=wrap;html=1;" vertex="1" parent="1">
          <mxGeometry x="-150" y="300" width="120" height="30" as="geometry" />
        </mxCell>
        <mxCell id="yEjFLrhrBWh2FLQ-gsuq-16" value="Date" style="ellipse;whiteSpace=wrap;html=1;" vertex="1" parent="1">
          <mxGeometry x="-150" y="255" width="120" height="30" as="geometry" />
        </mxCell>
        <mxCell id="yEjFLrhrBWh2FLQ-gsuq-18" value="&lt;u&gt;Name&lt;/u&gt;" style="ellipse;whiteSpace=wrap;html=1;" vertex="1" parent="1">
          <mxGeometry x="597" y="200" width="120" height="30" as="geometry" />
        </mxCell>
        <mxCell id="yEjFLrhrBWh2FLQ-gsuq-19" value="Caption" style="ellipse;whiteSpace=wrap;html=1;" vertex="1" parent="1">
          <mxGeometry x="597" y="255" width="120" height="30" as="geometry" />
        </mxCell>
        <mxCell id="yEjFLrhrBWh2FLQ-gsuq-20" value="Inset" style="ellipse;whiteSpace=wrap;html=1;" vertex="1" parent="1">
          <mxGeometry x="597" y="310" width="120" height="30" as="geometry" />
        </mxCell>
        <mxCell id="yEjFLrhrBWh2FLQ-gsuq-21" value="" style="endArrow=none;html=1;rounded=0;exitX=1;exitY=0.5;exitDx=0;exitDy=0;" edge="1" parent="1" source="yEjFLrhrBWh2FLQ-gsuq-4">
          <mxGeometry width="50" height="50" relative="1" as="geometry">
            <mxPoint x="-99.36000000000013" y="350" as="sourcePoint" />
            <mxPoint x="50" y="270.15999999999997" as="targetPoint" />
          </mxGeometry>
        </mxCell>
        <mxCell id="yEjFLrhrBWh2FLQ-gsuq-22" value="" style="endArrow=none;html=1;rounded=0;exitX=0;exitY=0.5;exitDx=0;exitDy=0;entryX=1;entryY=0.5;entryDx=0;entryDy=0;" edge="1" parent="1" source="yEjFLrhrBWh2FLQ-gsuq-1" target="yEjFLrhrBWh2FLQ-gsuq-14">
          <mxGeometry width="50" height="50" relative="1" as="geometry">
            <mxPoint x="-10" y="300" as="sourcePoint" />
            <mxPoint x="70" y="395.15999999999997" as="targetPoint" />
          </mxGeometry>
        </mxCell>
        <mxCell id="yEjFLrhrBWh2FLQ-gsuq-23" value="" style="endArrow=none;html=1;rounded=0;exitX=0;exitY=0.5;exitDx=0;exitDy=0;entryX=1;entryY=0.5;entryDx=0;entryDy=0;" edge="1" parent="1" source="yEjFLrhrBWh2FLQ-gsuq-1" target="yEjFLrhrBWh2FLQ-gsuq-16">
          <mxGeometry width="50" height="50" relative="1" as="geometry">
            <mxPoint x="-10" y="350" as="sourcePoint" />
            <mxPoint x="70" y="445.15999999999997" as="targetPoint" />
          </mxGeometry>
        </mxCell>
        <mxCell id="yEjFLrhrBWh2FLQ-gsuq-24" value="" style="endArrow=none;html=1;rounded=0;exitX=0;exitY=0.5;exitDx=0;exitDy=0;entryX=1;entryY=0.5;entryDx=0;entryDy=0;" edge="1" parent="1" source="yEjFLrhrBWh2FLQ-gsuq-1" target="yEjFLrhrBWh2FLQ-gsuq-15">
          <mxGeometry width="50" height="50" relative="1" as="geometry">
            <mxPoint x="60" y="280" as="sourcePoint" />
            <mxPoint x="-20" y="280" as="targetPoint" />
          </mxGeometry>
        </mxCell>
        <mxCell id="yEjFLrhrBWh2FLQ-gsuq-25" value="" style="endArrow=none;html=1;rounded=0;exitX=0;exitY=0.5;exitDx=0;exitDy=0;entryX=1;entryY=0.5;entryDx=0;entryDy=0;" edge="1" parent="1" source="yEjFLrhrBWh2FLQ-gsuq-1">
          <mxGeometry width="50" height="50" relative="1" as="geometry">
            <mxPoint x="60" y="280" as="sourcePoint" />
            <mxPoint x="-30" y="365" as="targetPoint" />
          </mxGeometry>
        </mxCell>
        <mxCell id="yEjFLrhrBWh2FLQ-gsuq-26" value="" style="endArrow=none;html=1;rounded=0;exitX=0;exitY=0.5;exitDx=0;exitDy=0;entryX=1;entryY=0.5;entryDx=0;entryDy=0;" edge="1" parent="1" source="yEjFLrhrBWh2FLQ-gsuq-18">
          <mxGeometry width="50" height="50" relative="1" as="geometry">
            <mxPoint x="580" y="145" as="sourcePoint" />
            <mxPoint x="520" y="270" as="targetPoint" />
          </mxGeometry>
        </mxCell>
        <mxCell id="yEjFLrhrBWh2FLQ-gsuq-27" value="" style="endArrow=none;html=1;rounded=0;exitX=0;exitY=0.5;exitDx=0;exitDy=0;entryX=1;entryY=0.5;entryDx=0;entryDy=0;" edge="1" parent="1" source="yEjFLrhrBWh2FLQ-gsuq-19">
          <mxGeometry width="50" height="50" relative="1" as="geometry">
            <mxPoint x="560" y="410" as="sourcePoint" />
            <mxPoint x="520" y="270" as="targetPoint" />
          </mxGeometry>
        </mxCell>
        <mxCell id="yEjFLrhrBWh2FLQ-gsuq-28" value="" style="endArrow=none;html=1;rounded=0;exitX=0;exitY=0.5;exitDx=0;exitDy=0;entryX=1;entryY=0.5;entryDx=0;entryDy=0;" edge="1" parent="1" source="yEjFLrhrBWh2FLQ-gsuq-20">
          <mxGeometry width="50" height="50" relative="1" as="geometry">
            <mxPoint x="607" y="280" as="sourcePoint" />
            <mxPoint x="520" y="270" as="targetPoint" />
          </mxGeometry>
        </mxCell>
        <mxCell id="yEjFLrhrBWh2FLQ-gsuq-29" value="" style="verticalLabelPosition=bottom;verticalAlign=top;html=1;shape=mxgraph.basic.frame;dx=10;whiteSpace=wrap;" vertex="1" parent="1">
          <mxGeometry x="400" y="230" width="120" height="80" as="geometry" />
        </mxCell>
        <mxCell id="yEjFLrhrBWh2FLQ-gsuq-30" value="Image" style="text;html=1;align=center;verticalAlign=middle;resizable=0;points=[];autosize=1;strokeColor=none;fillColor=none;" vertex="1" parent="1">
          <mxGeometry x="430" y="255" width="60" height="30" as="geometry" />
        </mxCell>
        <mxCell id="yEjFLrhrBWh2FLQ-gsuq-31" value="Categories" style="ellipse;shape=doubleEllipse;margin=3;whiteSpace=wrap;html=1;align=center;" vertex="1" parent="1">
          <mxGeometry x="-150" y="350" width="120" height="30" as="geometry" />
        </mxCell>
      </root>
    </mxGraphModel>
  </diagram>
</mxfile>
